<svg width="1200" height="630" viewBox="0 0 1200 630" fill="none" xmlns="http://www.w3.org/2000/svg">
  <defs>
    <linearGradient id="bg" x1="0" y1="0" x2="1188" y2="680" gradientUnits="userSpaceOnUse">
      <stop stop-color="#0B2E78"/>
      <stop offset="0.55" stop-color="#1F4FAF"/>
      <stop offset="1" stop-color="#2F6FD6"/>
    </linearGradient>
    <radialGradient id="halo" cx="0" cy="0" r="1" gradientUnits="userSpaceOnUse" gradientTransform="translate(360 110) rotate(27) scale(530 220)">
      <stop stop-color="#FFFFFF" stop-opacity="0.34"/>
      <stop offset="1" stop-color="#FFFFFF" stop-opacity="0"/>
    </radialGradient>
  </defs>

  <rect width="1200" height="630" rx="28" fill="url(#bg)"/>
  <ellipse cx="350" cy="90" rx="520" ry="210" fill="url(#halo)"/>

  <g opacity="0.36">
    <rect x="720" y="152" width="372" height="210" rx="18" fill="#8FB9FF"/>
    <rect x="742" y="176" width="328" height="162" rx="12" fill="#CFE2FF"/>
  </g>

  <path d="M0 430C146 394 234 523 396 500C560 478 620 360 769 372C920 384 1049 509 1200 470V630H0V430Z" fill="#07225B" fill-opacity="0.55"/>

  <text x="110" y="220" fill="#EAF1FF" font-family="Sora, Arial, sans-serif" font-size="84" font-weight="700">Ingemant SPA</text>
  <text x="110" y="284" fill="#D4E5FF" font-family="Manrope, Arial, sans-serif" font-size="34" font-weight="500">Ingenieria aplicada para continuidad operacional industrial.</text>
  <text x="110" y="355" fill="#BFD7FF" font-family="Manrope, Arial, sans-serif" font-size="29" font-weight="500">Mantenimiento | Aire Comprimido | Oxigenacion | Automatizacion</text>

  <rect x="110" y="402" width="460" height="58" rx="29" fill="#EAF1FF" fill-opacity="0.2" stroke="#D4E5FF" stroke-opacity="0.6"/>
  <text x="148" y="441" fill="#EAF1FF" font-family="Manrope, Arial, sans-serif" font-size="28" font-weight="700">Web Corporativa en Vercel</text>
</svg>
